<?xml version="1.0" encoding="utf-8"?>
<!-- Generator: Adobe Illustrator 15.0.0, SVG Export Plug-In . SVG Version: 6.00 Build 0)  -->
<!DOCTYPE svg PUBLIC "-//W3C//DTD SVG 1.1//EN" "http://www.w3.org/Graphics/SVG/1.1/DTD/svg11.dtd">
<svg version="1.1" id="Layer_1" xmlns="http://www.w3.org/2000/svg" xmlns:xlink="http://www.w3.org/1999/xlink" x="0px" y="0px"
	 width="350px" height="202px" viewBox="0 0 350 202" enable-background="new 0 0 350 202" xml:space="preserve">
<g>
	<path fill="#D21F26" d="M201.384,100.693C201.384,45.171,156.212,0,100.693,0C45.17,0,0,45.171,0,100.693
		c0,55.521,45.17,100.691,100.693,100.691v-21.576c-43.625,0-79.117-35.491-79.117-79.115s35.491-79.115,79.117-79.115
		c38.717,0,71.004,27.965,77.783,64.751h-69.798h-2.432H94.024v34.341L70.012,86.329H52.355v67.27H67.1v-36.99l26.924,36.99h14.653
		v-52.88h22.246v52.88h19.068v-52.88h33.443v-0.025H201.384z"/>
	<g>
		<path fill="#FFFFFF" d="M158.696,127.154V111.87h2.176l4.876,7.734c1.11,1.792,2.018,3.4,2.722,4.964l0.067-0.021
			c-0.181-2.04-0.227-3.899-0.227-6.281v-6.396h1.861v15.284h-1.996l-4.854-7.756c-1.066-1.701-2.086-3.445-2.834-5.102
			l-0.068,0.022c0.114,1.929,0.137,3.766,0.137,6.303v6.532H158.696z"/>
		<path fill="#FFFFFF" d="M186.114,119.354c0,5.237-3.198,8.052-7.099,8.052c-4.06,0-6.871-3.153-6.871-7.779
			c0-4.854,2.993-8.028,7.074-8.028C183.414,111.598,186.114,114.795,186.114,119.354z M174.23,119.582
			c0,3.286,1.769,6.211,4.898,6.211c3.129,0,4.897-2.88,4.897-6.348c0-3.061-1.588-6.236-4.875-6.236
			C175.862,113.209,174.23,116.248,174.23,119.582z"/>
		<path fill="#FFFFFF" d="M190.606,127.154l-3.879-15.284h2.088l1.814,7.734c0.452,1.903,0.861,3.81,1.133,5.281h0.046
			c0.249-1.52,0.725-3.331,1.246-5.304l2.042-7.712h2.063l1.858,7.756c0.432,1.815,0.84,3.63,1.066,5.238h0.046
			c0.317-1.679,0.749-3.379,1.225-5.282l2.018-7.712h2.019l-4.331,15.284h-2.063l-1.928-7.959c-0.476-1.951-0.795-3.445-0.997-4.99
			h-0.047c-0.249,1.52-0.612,3.017-1.178,4.99l-2.178,7.959H190.606z"/>
		<path fill="#FFFFFF" d="M214.623,119.988h-5.919v5.51h6.622v1.656h-8.618V111.87h8.278v1.656h-6.282v4.831h5.919V119.988z"/>
		<path fill="#FFFFFF" d="M223.537,113.549h-4.648v-1.679h11.315v1.679h-4.672v13.605h-1.995V113.549z"/>
		<path fill="#FFFFFF" d="M239.232,119.988h-5.92v5.51h6.622v1.656h-8.617V111.87h8.278v1.656h-6.283v4.831h5.92V119.988z"/>
		<path fill="#FFFFFF" d="M252.589,126.679c-0.702,0.364-2.176,0.727-4.036,0.727c-4.309,0-7.528-2.723-7.528-7.757
			c0-4.806,3.242-8.025,7.981-8.025c1.883,0,3.107,0.406,3.629,0.679l-0.499,1.611c-0.726-0.364-1.791-0.638-3.062-0.638
			c-3.583,0-5.964,2.291-5.964,6.307c0,3.763,2.154,6.145,5.852,6.145c1.225,0,2.448-0.25,3.241-0.635L252.589,126.679z"/>
		<path fill="#FFFFFF" d="M256.491,111.87v6.396h7.393v-6.396h1.995v15.284h-1.995v-7.166h-7.393v7.166h-1.996V111.87H256.491z"/>
		<path fill="#FFFFFF" d="M268.739,127.154V111.87h2.176l4.876,7.734c1.11,1.792,2.018,3.4,2.722,4.964l0.066-0.021
			c-0.181-2.04-0.227-3.899-0.227-6.281v-6.396h1.86v15.284h-1.995l-4.854-7.756c-1.065-1.701-2.086-3.445-2.834-5.102l-0.068,0.022
			c0.114,1.929,0.136,3.766,0.136,6.303v6.532H268.739z"/>
		<path fill="#FFFFFF" d="M296.158,119.354c0,5.237-3.197,8.052-7.098,8.052c-4.059,0-6.871-3.153-6.871-7.779
			c0-4.854,2.993-8.028,7.074-8.028C293.459,111.598,296.158,114.795,296.158,119.354z M284.275,119.582
			c0,3.286,1.769,6.211,4.897,6.211c3.13,0,4.898-2.88,4.898-6.348c0-3.061-1.588-6.236-4.876-6.236
			S284.275,116.248,284.275,119.582z"/>
		<path fill="#FFFFFF" d="M298.132,111.87h1.995v13.628h6.532v1.656h-8.527V111.87z"/>
		<path fill="#FFFFFF" d="M320.471,119.354c0,5.237-3.197,8.052-7.098,8.052c-4.059,0-6.871-3.153-6.871-7.779
			c0-4.854,2.993-8.028,7.074-8.028C317.771,111.598,320.471,114.795,320.471,119.354z M308.588,119.582
			c0,3.286,1.769,6.211,4.897,6.211c3.13,0,4.898-2.88,4.898-6.348c0-3.061-1.588-6.236-4.876-6.236
			S308.588,116.248,308.588,119.582z"/>
		<path fill="#FFFFFF" d="M334.124,126.476c-0.883,0.339-2.653,0.837-4.717,0.837c-2.313,0-4.218-0.59-5.713-2.018
			c-1.316-1.269-2.132-3.312-2.132-5.69c0-4.559,3.151-7.893,8.276-7.893c1.769,0,3.175,0.387,3.832,0.704l-0.498,1.608
			c-0.817-0.384-1.837-0.657-3.38-0.657c-3.718,0-6.146,2.313-6.146,6.145c0,3.88,2.313,6.171,5.896,6.171
			c1.292,0,2.178-0.185,2.631-0.409v-4.559h-3.085v-1.587h5.034V126.476z"/>
		<path fill="#FFFFFF" d="M338.524,111.87v15.284h-1.995V111.87H338.524z"/>
		<path fill="#FFFFFF" d="M349.297,119.988h-5.919v5.51H350v1.656h-8.617V111.87h8.277v1.656h-6.282v4.831h5.919V119.988z"/>
	</g>
	<g>
		<path fill="#FFFFFF" d="M158.696,135.919c1.201-0.203,2.63-0.339,4.193-0.339c2.836,0,4.854,0.679,6.192,1.903
			c1.383,1.25,2.176,3.017,2.176,5.487c0,2.497-0.793,4.537-2.2,5.942c-1.451,1.431-3.81,2.201-6.781,2.201
			c-1.427,0-2.583-0.069-3.581-0.184V135.919z M160.667,149.437c0.5,0.066,1.225,0.089,1.997,0.089c4.24,0,6.508-2.357,6.508-6.484
			c0.022-3.607-2.019-5.897-6.19-5.897c-1.021,0-1.792,0.092-2.314,0.206V149.437z"/>
		<path fill="#FFFFFF" d="M173.211,135.694h1.995v13.628h6.532v1.655h-8.527V135.694z"/>
		<path fill="#FFFFFF" d="M185.843,146.169l-1.588,4.809h-2.041l5.217-15.283h2.358l5.215,15.283h-2.109l-1.632-4.809H185.843z
			 M190.877,144.627l-1.52-4.399c-0.341-0.996-0.566-1.903-0.793-2.789h-0.046c-0.227,0.886-0.453,1.837-0.771,2.767l-1.498,4.422
			H190.877z"/>
		<path fill="#FFFFFF" d="M200.926,135.919c1.2-0.203,2.63-0.339,4.193-0.339c2.836,0,4.854,0.679,6.192,1.903
			c1.383,1.25,2.176,3.017,2.176,5.487c0,2.497-0.793,4.537-2.199,5.942c-1.452,1.431-3.811,2.201-6.781,2.201
			c-1.428,0-2.584-0.069-3.581-0.184V135.919z M202.897,149.437c0.499,0.066,1.224,0.089,1.996,0.089
			c4.24,0,6.508-2.357,6.508-6.484c0.022-3.607-2.019-5.897-6.19-5.897c-1.021,0-1.792,0.092-2.313,0.206V149.437z"/>
		<path fill="#FFFFFF" d="M214.42,149.82l8.459-12.404v-0.066h-7.733v-1.655h10.317v1.202l-8.435,12.355v0.07h8.549v1.655H214.42
			V149.82z"/>
		<path fill="#FFFFFF" d="M229.411,135.694v15.283h-1.996v-15.283H229.411z"/>
		<path fill="#FFFFFF" d="M240.184,143.812h-5.919v5.511h6.622v1.655h-8.618v-15.283h8.278v1.655h-6.282v4.828h5.919V143.812z"/>
		<path fill="#FFFFFF" d="M245.581,150.978l-3.878-15.283h2.088l1.814,7.73c0.452,1.906,0.861,3.81,1.132,5.285h0.047
			c0.249-1.52,0.725-3.334,1.246-5.308l2.042-7.708h2.063l1.858,7.753c0.432,1.814,0.839,3.629,1.066,5.24h0.046
			c0.317-1.678,0.748-3.378,1.225-5.285l2.018-7.708h2.019l-4.331,15.283h-2.064l-1.927-7.959c-0.476-1.951-0.795-3.448-0.998-4.99
			h-0.046c-0.249,1.52-0.612,3.018-1.178,4.99l-2.178,7.959H245.581z"/>
		<path fill="#FFFFFF" d="M272.365,150.502c-0.703,0.361-2.177,0.724-4.037,0.724c-4.308,0-7.527-2.719-7.527-7.753
			c0-4.81,3.242-8.029,7.981-8.029c1.883,0,3.106,0.409,3.629,0.682l-0.5,1.608c-0.725-0.361-1.791-0.634-3.061-0.634
			c-3.584,0-5.965,2.29-5.965,6.303c0,3.766,2.154,6.145,5.852,6.145c1.225,0,2.449-0.247,3.242-0.634L272.365,150.502z"/>
		<path fill="#FFFFFF" d="M273.252,149.82l8.459-12.404v-0.066h-7.734v-1.655h10.317v1.202l-8.435,12.355v0.07h8.549v1.655h-11.156
			V149.82z"/>
		<path fill="#FFFFFF" d="M289.671,150.978v-6.487l-4.852-8.796h2.267l2.154,4.216c0.567,1.157,1.043,2.087,1.52,3.153h0.046
			c0.407-1,0.951-1.996,1.541-3.153l2.2-4.216h2.223l-5.103,8.774v6.509H289.671z"/>
		<path fill="#FFFFFF" d="M297.814,150.978v-15.283h2.177l4.875,7.73c1.11,1.792,2.018,3.404,2.722,4.968l0.067-0.022
			c-0.182-2.043-0.228-3.901-0.228-6.281v-6.395h1.861v15.283h-1.996l-4.854-7.756c-1.065-1.7-2.086-3.448-2.834-5.101l-0.068,0.021
			c0.114,1.926,0.137,3.763,0.137,6.304v6.531H297.814z"/>
	</g>
</g>
</svg>
