<svg width="227px" height="51px" viewBox="0 0 227 51" version="1.1" xmlns="http://www.w3.org/2000/svg">
    <!-- Generator: Sketch 51.2 (57519) - http://www.bohemiancoding.com/sketch -->
    <title>Group 34</title>
    <desc>Created with Sketch.</desc>
    <defs></defs>
    <g id="Page-1" stroke="none" stroke-width="1" fill="none" fill-rule="evenodd">
        <g id="Menus" transform="translate(-355.000000, -1183.000000)">
            <g id="Group-34" transform="translate(355.000000, 1183.000000)">
                <g id="strefa_kursow_logo-01" fill-rule="nonzero">
                    <g id="Group-33" fill="#0082FA">
                        <g id="Combined-Shape">
                            <path d="M22.553709,40.0558241 C22.559262,40.0592617 22.5648147,40.0626958 22.5703671,40.0661264 C14.1135605,45.448659 6.00878365,46.9147816 2.16073432,43.0672225 C-1.68508251,39.2149161 -0.219666317,31.1012038 5.15878141,22.634225 C-0.214505202,14.1697517 -1.6872493,6.06173828 2.16073432,2.21019489 C6.00878365,-1.64141427 14.1135605,-0.171241693 22.5703671,5.20724092 C22.5667567,5.20953859 22.563146,5.21183711 22.559535,5.21413649 L22.5616492,5.21494359 C31.0220613,-0.169877121 39.1300062,-1.63819223 42.9759536,2.21424495 C46.6945207,5.93625212 45.4482545,13.6435205 40.4996064,21.8043959 C40.2268818,22.1700325 40.139825,22.641859 40.263943,23.0807768 C40.27367,23.0969757 40.2834378,23.1129738 40.2932441,23.1287662 C45.403745,31.4111434 46.7471229,39.2844644 42.9759536,43.0631724 C39.12912,46.9135647 31.0183247,45.4428759 22.5558011,40.054786 L22.553709,40.0558241 Z M20.6036959,38.7485431 L20.6043914,38.7466655 C18.0189945,36.9261546 15.4288072,34.752638 12.9441743,32.2657065 C11.9714144,31.2866525 11.0471052,30.2981687 10.1712468,29.3002552 C8.33263916,33.5163009 8.16438103,37.1732903 10.1077047,39.1184118 C12.1551421,41.1758434 16.1003031,40.8720887 20.5998098,38.7458061 C20.6011051,38.7467185 20.6024005,38.7476308 20.6036959,38.7485431 Z M20.5982076,6.52706836 C20.5960441,6.52858249 20.5938806,6.53009679 20.5917172,6.53161126 C16.1043494,4.41342873 12.1430032,4.12182425 10.1198437,6.16710567 C8.18165692,8.10708546 8.35160232,11.7561915 10.1805385,15.9601561 C10.143704,16.002073 10.1069343,16.0440447 10.0702295,16.0860712 L10.0709505,16.0867044 C10.9751027,15.0478621 11.9337289,14.019041 12.9441743,13.0076607 C15.4277477,10.5217898 18.0167856,8.34906637 20.601084,6.5290741 L20.5982076,6.52706836 Z M39.6294841,18.2858446 C39.4800576,18.6770337 39.4022036,19.1490645 39.3915331,19.6571977 C39.3993414,19.1412866 39.4791676,18.6480033 39.6532761,18.2257152 L39.5770457,18.4104437 C40.8030803,14.8747394 40.7181076,11.8695933 39.0227,10.1726172 C35.445754,6.5923622 26.0663867,10.1766673 18.0870457,18.16744 C16.6326319,19.6239375 15.3244798,21.1265878 14.1792518,22.6318575 C15.384306,24.2156977 16.6953081,25.7158978 18.103231,27.1221275 C26.0866183,35.1088502 35.457893,38.6891052 39.0348389,35.1088502 C40.9730257,33.1688704 40.811173,29.5197644 38.9822368,25.3117497 C37.659831,22.3115236 38.7900436,20.395738 39.6294841,18.2858446 Z"></path>
                        </g>
                    </g>
                    <path d="M55.7748307,29.4650442 C55.7748307,28.7402655 56.0257041,28.5690265 56.7783244,28.7123894 C58.2790547,29.0979974 59.8239411,29.2920669 61.3749733,29.289823 C63.782549,29.289823 64.7860428,28.8915929 64.7860428,27.6411504 C64.7860428,26.7172566 64.2519251,26.2234513 62.7628699,25.5584071 L58.9471658,23.8818584 C56.9482709,22.9818584 56.0378431,22.1137168 56.0378431,20.1185841 C56.0378431,17.6017699 57.7899109,16.4707965 61.5772906,16.4707965 C62.9020149,16.4467203 64.2219777,16.6336466 65.4860606,17.0243363 C66.2346346,17.2553097 66.4248128,17.4225664 66.4248128,18.0915929 L66.4248128,18.3544248 C66.4248128,19.0752212 66.1415686,19.2504425 65.4213191,19.0473451 C64.1540975,18.6708238 62.8362032,18.4855331 61.512549,18.4977876 C59.23041,18.4977876 58.3563993,18.9597345 58.3563993,20.1185841 C58.3563993,20.9150442 58.9188414,21.5641593 60.0113547,22.0300885 L63.9848663,23.7066372 C66.1091979,24.6345133 67.1126916,25.530531 67.1126916,27.5853982 C67.1126916,30.1579646 65.2351872,31.3168142 61.2009804,31.3168142 C59.7130672,31.3185994 58.2309777,31.1339286 56.7904635,30.7672566 C56.0095187,30.5641593 55.7869697,30.3053097 55.7869697,29.6960177 L55.7748307,29.4650442 Z" id="Shape" fill="#9294A6"></path>
                    <path d="M68.2578075,17.8924779 C68.2578075,17.2234513 68.4439394,17.0960177 69.1034938,16.9924779 L70.8838859,16.7615044 L71.2278253,13.7827434 C71.2601961,13.1734513 71.446328,12.9862832 72.1665775,12.9862832 L72.3850802,12.9862832 C73.0446346,12.9862832 73.2307665,13.1575221 73.2307665,13.7827434 L73.2307665,16.7615044 L78.2967914,16.7615044 C79.0777362,16.7615044 79.2679144,16.9367257 79.2679144,17.6575221 L79.2679144,17.920354 C79.2679144,18.6411504 79.0777362,18.8163717 78.2967914,18.8163717 L73.2307665,18.8163717 L73.2307665,26.1676991 C73.2307665,28.3938053 74.2302139,29.2340708 76.1077184,29.2340708 C77.0445826,29.2568585 77.9804588,29.1591294 78.8916043,28.9433628 C79.6118538,28.8 79.8303565,28.9712389 79.8303565,29.6960177 L79.8303565,29.9588496 C79.8303565,30.5362832 79.6442246,30.7951327 78.8592335,30.9982301 C77.9678952,31.2016243 77.0550128,31.299222 76.1400891,31.2889381 C72.6332561,31.2889381 70.8798396,29.5818584 70.8798396,26.1676991 L70.8798396,18.8163717 L69.0994474,18.8163717 C68.3791979,18.8163717 68.2537611,18.700885 68.2537611,18.0199115 L68.2578075,17.8924779 Z" id="Shape" fill="#9294A6"></path>
                    <path d="M84.5241176,30.1022124 C84.5241176,30.8986726 84.3663102,31.0261062 83.5206239,31.0261062 L83.1766845,31.0261062 C82.3957398,31.0261062 82.1772371,30.8827434 82.1772371,30.1022124 L82.1772371,21.4765487 C82.1772371,18.1513274 83.9616756,16.4707965 87.5265062,16.4707965 C87.8604757,16.4738298 88.1940655,16.4937676 88.5259537,16.530531 C89.3068984,16.6181416 89.4647059,16.8212389 89.4647059,17.5420354 L89.4647059,17.8327434 C89.4647059,18.5575221 89.278574,18.700885 88.4935829,18.5853982 C88.1213191,18.5575221 87.8057041,18.5256637 87.5265062,18.5256637 C85.2726916,18.5256637 84.5241176,19.509292 84.5241176,21.5960177 L84.5241176,30.1022124 Z" id="Shape" fill="#9294A6"></path>
                    <path d="M103.444831,23.8221239 C103.351765,24.5469027 103.165633,24.7181416 102.319947,24.7181416 L92.8757754,24.7181416 L92.8757754,25.5862832 C92.8757754,28.2225664 94.2839037,29.2619469 97.7556684,29.2619469 C99.1913629,29.2596597 100.620749,29.0749469 102.008378,28.7123894 C102.756952,28.509292 103.007825,28.7402655 103.007825,29.4650442 L103.007825,29.7238938 C103.007825,30.3331858 102.882389,30.520354 102.040749,30.7672566 C100.644833,31.1433557 99.2029012,31.328282 97.7556684,31.3168142 C92.8434046,31.3168142 90.5288948,29.5526549 90.5288948,25.2676991 L90.5288948,22.579646 C90.5288948,18.4977876 92.7179679,16.4707965 97.1284848,16.4707965 C101.255758,16.4707965 103.541943,18.4420354 103.541943,22.2610619 C103.551673,22.7831268 103.5192,23.3051264 103.444831,23.8221239 Z M92.8757754,22.8982301 L101.320499,22.8982301 L101.320499,21.9424779 C101.320499,19.5969027 99.9123708,18.410177 97.0961141,18.410177 C94.2798574,18.410177 92.8757754,19.6048673 92.8757754,21.9424779 L92.8757754,22.8982301 Z" id="Shape" fill="#9294A6"></path>
                    <path d="M104.666827,17.8924779 C104.666827,17.2234513 104.857005,17.0960177 105.512513,16.9924779 L107.296952,16.7615044 L107.296952,14.6190265 C107.296952,11.6402655 109.044973,10.1349558 112.557201,10.1349558 C113.355516,10.1452143 114.151486,10.2224857 114.936453,10.3659292 C115.717398,10.5132743 115.903529,10.6845133 115.903529,11.409292 L115.903529,11.6681416 C115.903529,12.3929204 115.685027,12.5641593 114.936453,12.4207965 C114.183961,12.2700125 113.418192,12.1926468 112.650267,12.189823 C110.651373,12.189823 109.647879,12.9424779 109.647879,14.4756637 L109.647879,16.7615044 L114.592513,16.7615044 C115.373458,16.7615044 115.55959,16.9367257 115.55959,17.6575221 L115.55959,17.920354 C115.55959,18.6411504 115.373458,18.8163717 114.592513,18.8163717 L109.639786,18.8163717 L109.639786,30.1022124 C109.639786,30.8986726 109.421283,31.0261062 108.640339,31.0261062 L108.296399,31.0261062 C107.450713,31.0261062 107.296952,30.8827434 107.296952,30.1022124 L107.296952,18.8163717 L105.512513,18.8163717 C104.792264,18.8163717 104.666827,18.700885 104.666827,18.0199115 L104.666827,17.8924779 Z" id="Shape" fill="#9294A6"></path>
                    <path d="M128.50385,26.7451327 C128.50385,29.9588496 126.480677,31.3168142 121.964955,31.3168142 C118.367754,31.3168142 116.085615,29.9867257 116.085615,26.9761062 C116.085615,23.9654867 118.209947,22.750885 122.466702,22.750885 L126.15697,22.750885 L126.15697,21.0146018 C126.15697,19.0473451 124.716471,18.3823009 122.058021,18.3823009 C120.903185,18.3648141 119.749868,18.4716435 118.618627,18.700885 C117.866007,18.8442478 117.61918,18.6730088 117.61918,17.9761062 L117.61918,17.7451327 C117.61918,17.0800885 117.805312,16.9048673 118.553886,16.7615044 C119.667756,16.5561415 120.799404,16.4587729 121.932585,16.4707965 C126.310731,16.4707965 128.50385,17.9761062 128.50385,21.0146018 L128.50385,26.7451327 Z M126.15697,24.459292 L122.495027,24.459292 C119.715187,24.459292 118.448681,25.1522124 118.448681,26.9761062 C118.448681,28.6247788 119.605936,29.4371681 121.94877,29.4371681 C124.829768,29.4371681 126.173155,28.8278761 126.173155,26.6495575 L126.15697,24.459292 Z" id="Shape" fill="#9294A6"></path>
                    <path d="M131.643815,12.3929204 C131.643815,11.090708 131.987754,10.7721239 133.395882,10.7721239 L133.958324,10.7721239 C135.366453,10.7721239 135.710392,11.090708 135.710392,12.3929204 L135.710392,29.409292 C135.710392,30.7115044 135.366453,31.0261062 133.958324,31.0261062 L133.395882,31.0261062 C131.987754,31.0261062 131.643815,30.7115044 131.643815,29.409292 L131.643815,12.3929204 Z M140.517451,17.8048673 C141.395508,16.7893805 141.95795,16.5584071 143.349893,16.5584071 L144.911783,16.5584071 C146.319911,16.5584071 146.412977,16.7893805 145.538966,17.8048673 L141.440018,22.4323009 C141.134164,22.6725216 140.923663,23.010757 140.845205,23.3880531 C140.93023,23.7473238 141.126809,24.0716255 141.407647,24.3159292 L146.194474,29.7557522 C147.068485,30.7672566 146.947094,31.0261062 145.538966,31.0261062 L143.997308,31.0261062 C142.58918,31.0261062 142.026738,30.7672566 141.164866,29.7557522 L138.00467,26.1079646 C137.261518,25.3406138 136.829684,24.3319488 136.790766,23.2725664 C136.790766,22.3168142 137.102335,21.7393805 138.00467,20.6960177 L140.517451,17.8048673 Z" id="Shape" fill="#0082FA"></path>
                    <path d="M151.163387,25.530531 C151.163387,27.1513274 151.786524,27.8163717 154.1941,27.8163717 C156.601676,27.8163717 157.168164,27.1513274 157.168164,25.530531 L157.168164,18.1792035 C157.168164,16.8769912 157.512103,16.5584071 158.920232,16.5584071 L159.535276,16.5584071 C160.939358,16.5584071 161.283298,16.8769912 161.283298,18.1792035 L161.283298,25.530531 C161.283298,29.4650442 159.094225,31.3765487 154.214332,31.3765487 C149.492246,31.3765487 147.08467,29.3495575 147.08467,25.530531 L147.08467,18.1792035 C147.08467,16.8769912 147.42861,16.5584071 148.836738,16.5584071 L149.419412,16.5584071 C150.82754,16.5584071 151.17148,16.8769912 151.17148,18.1792035 L151.163387,25.530531 Z" id="Shape" fill="#0082FA"></path>
                    <path d="M167.397326,29.409292 C167.397326,30.7115044 167.053387,31.0261062 165.645258,31.0261062 L165.050446,31.0261062 C163.642317,31.0261062 163.298378,30.7115044 163.298378,29.409292 L163.298378,21.4765487 C163.298378,18.0358407 165.552193,16.2119469 169.804902,16.2119469 L170.148841,16.2119469 C171.362745,16.2119469 171.743102,16.7057522 171.743102,18.0637168 L171.743102,18.3823009 C171.743102,19.6566372 171.431533,19.8597345 170.148841,19.7721239 L169.804902,19.7721239 C167.899073,19.7721239 167.377094,20.3495575 167.377094,21.7632743 L167.397326,29.409292 Z" id="Shape" fill="#0082FA"></path>
                    <path d="M172.681854,28.7721239 C172.681854,27.410177 173.058164,27.0637168 174.401551,27.410177 C175.793772,27.7470663 177.224951,27.9023791 178.658307,27.8721239 C180.50344,27.8721239 181.086114,27.700885 181.086114,27.0358407 C181.086114,26.5420354 180.774545,26.3110619 179.115544,25.7017699 L176.206221,24.5747788 C173.984777,23.7345133 172.969144,22.6951327 172.969144,20.4650442 C172.969144,17.5699115 174.814278,16.2119469 179.350232,16.2119469 C180.464761,16.2013277 181.576799,16.3175866 182.664189,16.5584071 C184.043993,16.8769912 184.387932,17.1955752 184.387932,18.4699115 L184.387932,18.7566372 C184.387932,20.0588496 184.011622,20.3774336 182.635865,20.0588496 C181.536938,19.8215284 180.414586,19.7053263 179.289537,19.7123894 C177.505098,19.7123894 176.975027,19.9433628 176.975027,20.5088496 C176.975027,20.9429204 177.254225,21.1181416 178.257718,21.4924779 L181.494795,22.6871681 C183.967112,23.5871681 185.091996,24.7141593 185.091996,27.0278761 C185.091996,30.0384956 183.121426,31.4084071 178.371016,31.4084071 C177.044651,31.4280525 175.720527,31.2943945 174.425829,31.010177 C173.050071,30.6915929 172.706132,30.3730088 172.706132,29.1026549 L172.681854,28.7721239 Z" id="Shape" fill="#0082FA"></path>
                    <path d="M186.479893,24.9530973 L186.479893,22.6353982 C186.479893,18.4977876 189.105971,16.2119469 193.981818,16.2119469 C199.080214,16.2119469 201.427094,18.3225664 201.427094,22.6353982 L201.427094,24.9530973 C201.427094,29.1185841 198.861711,31.3765487 193.981818,31.3765487 C188.883422,31.3765487 186.479893,29.2699115 186.479893,24.9530973 Z M197.332193,22.6353982 C197.332193,20.6442478 196.644314,19.7721239 193.981818,19.7721239 C191.319323,19.7721239 190.574795,20.6402655 190.574795,22.6353982 L190.574795,24.9530973 C190.574795,26.9442478 191.323369,27.8163717 193.981818,27.8163717 C196.640267,27.8163717 197.332193,26.9482301 197.332193,24.9530973 L197.332193,22.6353982 Z M196.988253,10.6566372 C198.392335,10.6566372 198.606791,10.9752212 197.769198,12.0464602 L196.73738,13.4323009 C196.077825,14.360177 195.547754,14.5911504 194.390499,14.5911504 L193.888752,14.5911504 C192.674848,14.5911504 192.512995,14.3323009 193.014742,13.3168142 L193.609554,12.1619469 C194.232692,10.9672566 194.734439,10.6566372 196.203262,10.6566372 L196.988253,10.6566372 Z" id="Shape" fill="#0082FA"></path>
                    <path d="M208.030731,26.880531 C208.184492,27.9238938 208.37467,28.099115 209.030178,28.099115 C209.685686,28.099115 209.904189,27.8362832 210.029626,26.880531 L211.033119,19.4176991 C211.312317,17.3628319 212.28344,16.5504425 214.784082,16.5504425 C217.163333,16.5504425 218.255847,17.2154867 218.539091,19.4176991 L219.538538,26.880531 C219.663975,27.8960177 219.914848,28.099115 220.542032,28.099115 C221.169216,28.099115 221.383672,27.8960177 221.54148,26.880531 L222.731105,18.1712389 C222.949608,16.8690265 223.293547,16.5504425 224.697629,16.5504425 L225.385508,16.5504425 C226.793636,16.5504425 227.109251,16.8690265 226.890749,18.1433628 L225.514991,27.3026549 C225.296488,28.6646018 224.855437,29.6920354 224.167558,30.3730088 C223.479679,31.0539823 222.261729,31.3566372 220.525847,31.3566372 C217.491087,31.3566372 216.519964,30.0544248 216.176025,27.3026549 L215.302014,20.7079646 C215.204902,19.9115044 215.144207,19.8079646 214.767897,19.8079646 C214.391586,19.8079646 214.330891,19.9234513 214.237825,20.7079646 L213.359768,27.3026549 C213.015829,29.9946903 212.048752,31.3566372 209.013993,31.3566372 C207.261925,31.3566372 206.043975,31.0380531 205.372282,30.3730088 C204.700588,29.7079646 204.275722,28.6924779 204.057219,27.3026549 L202.681462,18.1433628 C202.462959,16.8690265 202.774528,16.5504425 204.182656,16.5504425 L204.854349,16.5504425 C206.262478,16.5504425 206.606417,16.8690265 206.82492,18.1712389 L208.030731,26.880531 Z" id="Shape" fill="#0082FA"></path>
                </g>
                <path d="M138,50.17 L138,40.165 L142.395,40.165 C144.495,40.165 145.665,41.605 145.665,43.3 C145.665,44.995 144.48,46.435 142.395,46.435 L139.755,46.435 L139.755,50.17 L138,50.17 Z M143.865,43.3 C143.865,42.34 143.145,41.71 142.155,41.71 L139.755,41.71 L139.755,44.89 L142.155,44.89 C143.145,44.89 143.865,44.26 143.865,43.3 Z M147.555,50.17 L147.555,40.165 L149.31,40.165 L149.31,48.625 L153.72,48.625 L153.72,50.17 L147.555,50.17 Z M162.825,50.17 L162.09,48.25 L157.35,48.25 L156.615,50.17 L154.695,50.17 L158.625,40.165 L160.815,40.165 L164.745,50.17 L162.825,50.17 Z M159.72,41.65 L157.845,46.705 L161.595,46.705 L159.72,41.65 Z M167.685,50.17 L167.685,41.71 L164.655,41.71 L164.655,40.165 L172.47,40.165 L172.47,41.71 L169.44,41.71 L169.44,50.17 L167.685,50.17 Z M174.389999,50.17 L174.389999,40.165 L181.244999,40.165 L181.244999,41.71 L176.144999,41.71 L176.144999,44.305 L181.139999,44.305 L181.139999,45.85 L176.144999,45.85 L176.144999,50.17 L174.389999,50.17 Z M182.804999,45.175 C182.804999,42.19 184.919999,40 187.919999,40 C190.919999,40 193.034999,42.19 193.034999,45.175 C193.034999,48.16 190.919999,50.35 187.919999,50.35 C184.919999,50.35 182.804999,48.16 182.804999,45.175 Z M191.234999,45.175 C191.234999,43.105 189.929999,41.56 187.919999,41.56 C185.894999,41.56 184.604999,43.105 184.604999,45.175 C184.604999,47.23 185.894999,48.79 187.919999,48.79 C189.929999,48.79 191.234999,47.23 191.234999,45.175 Z M200.879999,50.17 L198.659999,46.435 L196.919999,46.435 L196.919999,50.17 L195.164999,50.17 L195.164999,40.165 L199.559999,40.165 C201.539999,40.165 202.829999,41.455 202.829999,43.3 C202.829999,45.085 201.659999,46.045 200.459999,46.24 L202.904999,50.17 L200.879999,50.17 Z M201.029999,43.3 C201.029999,42.34 200.309999,41.71 199.319999,41.71 L196.919999,41.71 L196.919999,44.89 L199.319999,44.89 C200.309999,44.89 201.029999,44.26 201.029999,43.3 Z M213.659999,50.17 L213.659999,42.595 L210.584999,50.17 L209.834999,50.17 L206.774999,42.595 L206.774999,50.17 L205.019999,50.17 L205.019999,40.165 L207.494999,40.165 L210.209999,46.9 L212.939999,40.165 L215.414999,40.165 L215.414999,50.17 L213.659999,50.17 Z M225.059999,50.17 L224.324999,48.25 L219.584999,48.25 L218.849999,50.17 L216.929999,50.17 L220.859999,40.165 L223.049999,40.165 L226.979999,50.17 L225.059999,50.17 Z M221.954999,41.65 L220.079999,46.705 L223.829999,46.705 L221.954999,41.65 Z" id="PLATFORMA" fill="#9294A6"></path>
            </g>
        </g>
    </g>
</svg>
